<svg width="308" height="207" viewBox="0 0 308 207" fill="none" xmlns="http://www.w3.org/2000/svg">
<path d="M0 6C0 2.68629 2.68629 0 6 0H302C305.314 0 308 2.68629 308 6V201C308 204.314 305.314 207 302 207H6C2.68629 207 0 204.314 0 201V6Z" fill="url(#paint0_linear_369_1257)" style="mix-blend-mode:multiply"/>
<path d="M16.42 32H23.16C25.66 32 27.04 30.46 27.04 28.4C27.04 26.76 25.88 25.34 24.46 25.12C25.7 24.86 26.78 23.74 26.78 22.06C26.78 20.18 25.42 18.66 22.98 18.66H16.42V32ZM18.76 24.18V20.72H22.5C23.7 20.72 24.38 21.46 24.38 22.46C24.38 23.46 23.7 24.18 22.5 24.18H18.76ZM18.76 29.94V26.24H22.6C23.94 26.24 24.64 27.08 24.64 28.08C24.64 29.24 23.88 29.94 22.6 29.94H18.76ZM28.7288 27.16C28.7288 30.22 30.8888 32.24 33.7888 32.24C35.3288 32.24 36.7488 31.76 37.7088 30.84L36.7488 29.46C36.0688 30.14 34.9488 30.52 34.0088 30.52C32.1888 30.52 31.0888 29.32 30.9288 27.86H38.3888V27.36C38.3888 24.32 36.5288 22.1 33.6288 22.1C30.7688 22.1 28.7288 24.36 28.7288 27.16ZM33.6288 23.82C35.5288 23.82 36.3088 25.24 36.3488 26.38H30.9087C31.0088 25.2 31.8288 23.82 33.6288 23.82ZM46.9816 32H49.0816V25.2C49.0816 23.22 48.0416 22.1 45.9616 22.1C44.4416 22.1 43.2016 22.9 42.5616 23.66V22.34H40.4616V32H42.5616V25.26C43.0416 24.6 43.9616 23.96 45.0416 23.96C46.2216 23.96 46.9816 24.46 46.9816 25.96V32ZM51.2092 27.16C51.2092 30.22 53.3692 32.24 56.2692 32.24C57.8092 32.24 59.2292 31.76 60.1892 30.84L59.2292 29.46C58.5492 30.14 57.4292 30.52 56.4892 30.52C54.6692 30.52 53.5692 29.32 53.4092 27.86H60.8692V27.36C60.8692 24.32 59.0092 22.1 56.1092 22.1C53.2492 22.1 51.2092 24.36 51.2092 27.16ZM56.1092 23.82C58.0092 23.82 58.7892 25.24 58.8292 26.38H53.3892C53.4892 25.2 54.3092 23.82 56.1092 23.82ZM70.142 20.74C70.862 20.74 71.442 20.16 71.442 19.44C71.442 18.72 70.862 18.14 70.142 18.14C69.442 18.14 68.842 18.72 68.842 19.44C68.842 20.16 69.442 20.74 70.142 20.74ZM63.442 32H65.542V24.18H67.502V22.34H65.542V21.8C65.542 20.72 66.062 20.18 66.882 20.18C67.242 20.18 67.522 20.26 67.722 20.4L68.182 18.84C67.762 18.6 67.162 18.46 66.502 18.46C64.722 18.46 63.442 19.64 63.442 21.8V22.34H61.842V24.18H63.442V32ZM69.102 32H71.202V22.34H69.102V32ZM76.8186 32.24C77.7986 32.24 78.4186 31.98 78.7986 31.62L78.2986 30.04C78.1386 30.22 77.7586 30.38 77.3586 30.38C76.7586 30.38 76.4386 29.9 76.4386 29.24V24.18H78.3986V22.34H76.4386V19.7H74.3386V22.34H72.7386V24.18H74.3386V29.76C74.3386 31.36 75.1986 32.24 76.8186 32.24ZM79.4653 30.74C80.4653 31.72 81.9653 32.24 83.6053 32.24C86.2053 32.24 87.6253 30.94 87.6253 29.24C87.6253 26.96 85.5653 26.48 83.8853 26.12C82.7453 25.86 81.7853 25.6 81.7853 24.86C81.7853 24.18 82.4853 23.78 83.5853 23.78C84.7853 23.78 85.8653 24.28 86.4453 24.94L87.3253 23.46C86.4453 22.68 85.2053 22.1 83.5653 22.1C81.1253 22.1 79.7653 23.46 79.7653 25.04C79.7653 27.2 81.7453 27.64 83.4053 28C84.5853 28.26 85.6053 28.56 85.6053 29.4C85.6053 30.12 84.9653 30.58 83.7053 30.58C82.4453 30.58 81.1053 29.92 80.4253 29.22L79.4653 30.74ZM99.2356 32.24C102.336 32.24 104.216 29.94 104.216 27.16C104.216 24.4 102.336 22.1 99.2356 22.1C96.1756 22.1 94.2756 24.4 94.2756 27.16C94.2756 29.94 96.1756 32.24 99.2356 32.24ZM99.2356 30.38C97.4556 30.38 96.4556 28.88 96.4556 27.16C96.4556 25.46 97.4556 23.96 99.2356 23.96C101.036 23.96 102.036 25.46 102.036 27.16C102.036 28.88 101.036 30.38 99.2356 30.38ZM106.84 32H108.94V24.18H110.9V22.34H108.94V21.8C108.94 20.72 109.46 20.18 110.28 20.18C110.58 20.18 110.88 20.24 111.12 20.38L111.58 18.84C111.16 18.6 110.56 18.46 109.9 18.46C108.12 18.46 106.84 19.64 106.84 21.8V22.34H105.24V24.18H106.84V32ZM119.73 35.68V30.66C120.51 31.7 121.61 32.24 122.83 32.24C125.33 32.24 127.11 30.34 127.11 27.16C127.11 23.98 125.33 22.1 122.83 22.1C121.57 22.1 120.45 22.7 119.73 23.66V22.34H117.63V35.68H119.73ZM124.93 27.16C124.93 29.04 123.87 30.38 122.21 30.38C121.23 30.38 120.19 29.78 119.73 29.08V25.26C120.19 24.54 121.23 23.96 122.21 23.96C123.87 23.96 124.93 25.3 124.93 27.16ZM135.131 32H137.231V25.6C137.231 23 135.351 22.1 133.211 22.1C131.671 22.1 130.271 22.6 129.151 23.66L130.011 25.12C130.851 24.3 131.791 23.9 132.871 23.9C134.211 23.9 135.131 24.58 135.131 25.7V27.14C134.431 26.32 133.311 25.9 132.011 25.9C130.431 25.9 128.651 26.82 128.651 29.04C128.651 31.18 130.431 32.24 132.011 32.24C133.291 32.24 134.411 31.78 135.131 30.96V32ZM135.131 29.8C134.651 30.46 133.751 30.8 132.831 30.8C131.651 30.8 130.771 30.12 130.771 29.08C130.771 28.02 131.651 27.34 132.831 27.34C133.751 27.34 134.651 27.68 135.131 28.34V29.8ZM139.854 33.9L139.534 35.78C139.834 35.86 140.414 35.92 140.714 35.92C142.214 35.9 143.374 35.38 144.034 33.74L148.694 22.34H146.434L143.614 29.58L140.794 22.34H138.554L142.514 32.12L142.034 33.22C141.754 33.86 141.314 34.06 140.654 34.06C140.414 34.06 140.074 34 139.854 33.9ZM155.149 32H157.249V18.66H155.149V32ZM165.873 32H167.973V25.6C167.973 23 166.093 22.1 163.953 22.1C162.413 22.1 161.013 22.6 159.893 23.66L160.753 25.12C161.593 24.3 162.533 23.9 163.613 23.9C164.953 23.9 165.873 24.58 165.873 25.7V27.14C165.173 26.32 164.053 25.9 162.753 25.9C161.173 25.9 159.393 26.82 159.393 29.04C159.393 31.18 161.173 32.24 162.753 32.24C164.033 32.24 165.153 31.78 165.873 30.96V32ZM165.873 29.8C165.393 30.46 164.493 30.8 163.573 30.8C162.393 30.8 161.513 30.12 161.513 29.08C161.513 28.02 162.393 27.34 163.573 27.34C164.493 27.34 165.393 27.68 165.873 28.34V29.8ZM173.596 32.24C174.576 32.24 175.196 31.98 175.576 31.62L175.076 30.04C174.916 30.22 174.536 30.38 174.136 30.38C173.536 30.38 173.216 29.9 173.216 29.24V24.18H175.176V22.34H173.216V19.7H171.116V22.34H169.516V24.18H171.116V29.76C171.116 31.36 171.976 32.24 173.596 32.24ZM176.483 27.16C176.483 30.22 178.643 32.24 181.543 32.24C183.083 32.24 184.503 31.76 185.463 30.84L184.503 29.46C183.823 30.14 182.703 30.52 181.763 30.52C179.943 30.52 178.843 29.32 178.683 27.86H186.143V27.36C186.143 24.32 184.283 22.1 181.383 22.1C178.523 22.1 176.483 24.36 176.483 27.16ZM181.383 23.82C183.283 23.82 184.063 25.24 184.103 26.38H178.663C178.763 25.2 179.583 23.82 181.383 23.82ZM188.215 32H190.315V25.42C190.735 24.74 191.915 24.14 192.795 24.14C193.055 24.14 193.275 24.16 193.455 24.2V22.12C192.195 22.12 191.035 22.84 190.315 23.76V22.34H188.215V32Z" fill="white"/>
<path d="M65.384 70V59.328H63.512V66.896L58.056 59.328H56.136V70H58.008V62.224L63.576 70H65.384ZM71.0916 70.192C73.5716 70.192 75.0756 68.352 75.0756 66.128C75.0756 63.92 73.5716 62.08 71.0916 62.08C68.6436 62.08 67.1236 63.92 67.1236 66.128C67.1236 68.352 68.6436 70.192 71.0916 70.192ZM71.0916 68.704C69.6676 68.704 68.8676 67.504 68.8676 66.128C68.8676 64.768 69.6676 63.568 71.0916 63.568C72.5316 63.568 73.3316 64.768 73.3316 66.128C73.3316 67.504 72.5316 68.704 71.0916 68.704ZM82.8049 70V66.016H85.6209C87.8449 66.016 89.1089 64.48 89.1089 62.672C89.1089 60.864 87.8609 59.328 85.6209 59.328H80.9329V70H82.8049ZM87.1889 62.672C87.1889 63.696 86.4209 64.368 85.3649 64.368H82.8049V60.976H85.3649C86.4209 60.976 87.1889 61.648 87.1889 62.672ZM96.7068 70V64.88C96.7068 62.8 95.2028 62.08 93.4908 62.08C92.2588 62.08 91.1388 62.48 90.2428 63.328L90.9308 64.496C91.6028 63.84 92.3548 63.52 93.2188 63.52C94.2908 63.52 95.0268 64.064 95.0268 64.96V66.112C94.4668 65.456 93.5708 65.12 92.5308 65.12C91.2668 65.12 89.8428 65.856 89.8428 67.632C89.8428 69.344 91.2668 70.192 92.5308 70.192C93.5548 70.192 94.4508 69.824 95.0268 69.168V70H96.7068ZM95.0268 68.24C94.6428 68.768 93.9227 69.04 93.1868 69.04C92.2428 69.04 91.5388 68.496 91.5388 67.664C91.5388 66.816 92.2428 66.272 93.1868 66.272C93.9227 66.272 94.6428 66.544 95.0268 67.072V68.24ZM100.565 68.928C101.189 69.76 102.069 70.192 103.045 70.192C105.045 70.192 106.469 68.672 106.469 66.128C106.469 63.584 105.045 62.08 103.045 62.08C102.037 62.08 101.141 62.56 100.565 63.328V62.272H98.8849V72.944H100.565V68.928ZM104.725 66.128C104.725 67.632 103.877 68.704 102.549 68.704C101.765 68.704 100.933 68.224 100.565 67.664V64.608C100.933 64.032 101.765 63.568 102.549 63.568C103.877 63.568 104.725 64.64 104.725 66.128ZM107.686 66.128C107.686 68.576 109.414 70.192 111.734 70.192C112.966 70.192 114.102 69.808 114.87 69.072L114.102 67.968C113.558 68.512 112.662 68.816 111.91 68.816C110.454 68.816 109.574 67.856 109.446 66.688H115.414V66.288C115.414 63.856 113.926 62.08 111.606 62.08C109.318 62.08 107.686 63.888 107.686 66.128ZM111.606 63.456C113.126 63.456 113.75 64.592 113.782 65.504H109.43C109.51 64.56 110.166 63.456 111.606 63.456ZM118.752 70V64.736C119.088 64.192 120.032 63.712 120.736 63.712C120.944 63.712 121.12 63.728 121.264 63.76V62.096C120.256 62.096 119.328 62.672 118.752 63.408V62.272H117.072V70H118.752ZM131.115 70L133.515 62.272H131.771L130.139 67.888L128.299 62.272H126.827L124.987 67.888L123.355 62.272H121.611L124.011 70H125.771L127.563 64.336L129.355 70H131.115ZM138.17 70.192C140.65 70.192 142.154 68.352 142.154 66.128C142.154 63.92 140.65 62.08 138.17 62.08C135.722 62.08 134.202 63.92 134.202 66.128C134.202 68.352 135.722 70.192 138.17 70.192ZM138.17 68.704C136.746 68.704 135.946 67.504 135.946 66.128C135.946 64.768 136.746 63.568 138.17 63.568C139.61 63.568 140.41 64.768 140.41 66.128C140.41 67.504 139.61 68.704 138.17 68.704ZM145.534 70V64.736C145.87 64.192 146.814 63.712 147.518 63.712C147.726 63.712 147.902 63.728 148.046 63.76V62.096C147.038 62.096 146.11 62.672 145.534 63.408V62.272H143.854V70H145.534ZM156.633 70L153.353 65.776L156.569 62.272H154.489L151.081 66V59.328H149.401V70H151.081V67.92L152.153 66.816L154.521 70H156.633Z" fill="white"/>
<mask id="mask0_369_1257" style="mask-type:alpha" maskUnits="userSpaceOnUse" x="22" y="52" width="24" height="24">
<rect x="22" y="52" width="24" height="24" fill="#D9D9D9"/>
</mask>
<g mask="url(#mask0_369_1257)">
<path d="M41.775 74.6248L40 72.8498V72.9998H28V68.9998H24V62.9998C24 62.1498 24.2917 61.4375 24.875 60.8628C25.4583 60.2875 26.1667 59.9998 27 59.9998H27.15L23.375 56.2248L24.8 54.7998L43.2 73.1998L41.775 74.6248ZM30 70.9998H38V70.8498L34.15 66.9998H30V70.9998ZM41.85 68.9998L39.85 66.9998H42V62.9998C42 62.7165 41.904 62.4788 41.712 62.2868C41.5207 62.0955 41.2833 61.9998 41 61.9998H34.85L32.85 59.9998H41C41.85 59.9998 42.5627 60.2875 43.138 60.8628C43.7127 61.4375 44 62.1498 44 62.9998V68.9998H41.85ZM26 66.9998H28V64.9998H32.15L29.15 61.9998H27C26.7167 61.9998 26.479 62.0955 26.287 62.2868C26.0957 62.4788 26 62.7165 26 62.9998V66.9998ZM38 59.9998V56.9998H29.85L27.85 54.9998H40V59.9998H38ZM40 64.4998C40.2833 64.4998 40.5207 64.4038 40.712 64.2118C40.904 64.0205 41 63.7831 41 63.4998C41 63.2165 40.904 62.9788 40.712 62.7868C40.5207 62.5955 40.2833 62.4998 40 62.4998C39.7167 62.4998 39.4793 62.5955 39.288 62.7868C39.096 62.9788 39 63.2165 39 63.4998C39 63.7831 39.096 64.0205 39.288 64.2118C39.4793 64.4038 39.7167 64.4998 40 64.4998ZM27 61.9998H29.15H26H27ZM41 61.9998H42H34.85H41Z" fill="#F5B900"/>
</g>
<path d="M159.448 106.496C160.392 107.504 161.816 108.192 163.784 108.192C166.664 108.192 167.912 106.672 167.912 104.896C167.912 102.576 165.816 102.032 164.056 101.584C162.792 101.264 161.704 100.992 161.704 100.16C161.704 99.36 162.408 98.832 163.512 98.832C164.632 98.832 165.768 99.216 166.6 100.048L167.672 98.656C166.68 97.696 165.336 97.168 163.672 97.168C161.336 97.168 159.784 98.528 159.784 100.288C159.784 102.544 161.832 103.056 163.576 103.488C164.872 103.824 166.008 104.112 166.008 105.072C166.008 105.776 165.4 106.528 163.864 106.528C162.376 106.528 161.224 105.84 160.488 105.056L159.448 106.496ZM171.674 108.192C172.458 108.192 172.954 107.984 173.258 107.696L172.858 106.432C172.73 106.576 172.426 106.704 172.106 106.704C171.626 106.704 171.37 106.32 171.37 105.792V101.744H172.938V100.272H171.37V98.16H169.69V100.272H168.41V101.744H169.69V106.208C169.69 107.488 170.378 108.192 171.674 108.192ZM180.863 108V102.88C180.863 100.8 179.359 100.08 177.647 100.08C176.415 100.08 175.295 100.48 174.399 101.328L175.087 102.496C175.759 101.84 176.511 101.52 177.375 101.52C178.447 101.52 179.183 102.064 179.183 102.96V104.112C178.623 103.456 177.727 103.12 176.687 103.12C175.423 103.12 173.999 103.856 173.999 105.632C173.999 107.344 175.423 108.192 176.687 108.192C177.711 108.192 178.607 107.824 179.183 107.168V108H180.863ZM179.183 106.24C178.799 106.768 178.079 107.04 177.343 107.04C176.399 107.04 175.695 106.496 175.695 105.664C175.695 104.816 176.399 104.272 177.343 104.272C178.079 104.272 178.799 104.544 179.183 105.072V106.24ZM184.721 108V102.736C185.057 102.192 186.001 101.712 186.705 101.712C186.913 101.712 187.089 101.728 187.233 101.76V100.096C186.225 100.096 185.297 100.672 184.721 101.408V100.272H183.041V108H184.721ZM190.908 108.192C191.692 108.192 192.188 107.984 192.492 107.696L192.092 106.432C191.964 106.576 191.66 106.704 191.34 106.704C190.86 106.704 190.604 106.32 190.604 105.792V101.744H192.172V100.272H190.604V98.16H188.924V100.272H187.644V101.744H188.924V106.208C188.924 107.488 189.612 108.192 190.908 108.192ZM204.207 108V102.88C204.207 100.8 202.703 100.08 200.991 100.08C199.759 100.08 198.639 100.48 197.743 101.328L198.431 102.496C199.103 101.84 199.855 101.52 200.719 101.52C201.791 101.52 202.527 102.064 202.527 102.96V104.112C201.967 103.456 201.071 103.12 200.031 103.12C198.767 103.12 197.343 103.856 197.343 105.632C197.343 107.344 198.767 108.192 200.031 108.192C201.055 108.192 201.951 107.824 202.527 107.168V108H204.207ZM202.527 106.24C202.143 106.768 201.423 107.04 200.687 107.04C199.743 107.04 199.039 106.496 199.039 105.664C199.039 104.816 199.743 104.272 200.687 104.272C201.423 104.272 202.143 104.544 202.527 105.072V106.24ZM208.705 108.192C209.489 108.192 209.985 107.984 210.289 107.696L209.889 106.432C209.761 106.576 209.457 106.704 209.137 106.704C208.657 106.704 208.401 106.32 208.401 105.792V101.744H209.969V100.272H208.401V98.16H206.721V100.272H205.441V101.744H206.721V106.208C206.721 107.488 207.409 108.192 208.705 108.192ZM215.172 102.672C215.172 105.36 216.452 108.192 219.444 108.192C222.436 108.192 223.716 105.36 223.716 102.672C223.716 99.984 222.436 97.168 219.444 97.168C216.452 97.168 215.172 99.984 215.172 102.672ZM221.812 102.672C221.812 104.704 221.188 106.528 219.444 106.528C217.7 106.528 217.076 104.704 217.076 102.672C217.076 100.64 217.7 98.832 219.444 98.832C221.188 98.832 221.812 100.64 221.812 102.672ZM224.823 99.84C224.823 101.328 225.879 102.464 227.463 102.464C229.063 102.464 230.135 101.328 230.135 99.84C230.135 98.336 229.063 97.168 227.463 97.168C225.879 97.168 224.823 98.336 224.823 99.84ZM227.495 108L234.327 97.328H233.255L226.439 108H227.495ZM228.887 99.84C228.887 100.752 228.295 101.408 227.463 101.408C226.647 101.408 226.055 100.752 226.055 99.84C226.055 98.88 226.647 98.24 227.463 98.24C228.295 98.24 228.887 98.88 228.887 99.84ZM230.567 105.568C230.567 107.056 231.623 108.192 233.207 108.192C234.791 108.192 235.863 107.056 235.863 105.568C235.863 104.064 234.791 102.896 233.207 102.896C231.623 102.896 230.567 104.064 230.567 105.568ZM234.631 105.568C234.631 106.496 234.039 107.136 233.207 107.136C232.375 107.136 231.799 106.496 231.799 105.568C231.799 104.608 232.375 103.968 233.207 103.968C234.039 103.968 234.631 104.608 234.631 105.568ZM242.342 98.992C242.918 98.992 243.382 98.528 243.382 97.952C243.382 97.376 242.918 96.912 242.342 96.912C241.782 96.912 241.302 97.376 241.302 97.952C241.302 98.528 241.782 98.992 242.342 98.992ZM243.19 108V100.272H241.51V108H243.19ZM252.265 108V102.56C252.265 100.976 251.433 100.08 249.769 100.08C248.553 100.08 247.561 100.72 247.049 101.328V100.272H245.369V108H247.049V102.608C247.433 102.08 248.169 101.568 249.033 101.568C249.977 101.568 250.585 101.968 250.585 103.168V108H252.265ZM256.767 108.192C257.551 108.192 258.047 107.984 258.351 107.696L257.951 106.432C257.823 106.576 257.519 106.704 257.199 106.704C256.719 106.704 256.463 106.32 256.463 105.792V101.744H258.031V100.272H256.463V98.16H254.783V100.272H253.503V101.744H254.783V106.208C254.783 107.488 255.471 108.192 256.767 108.192ZM259.077 104.128C259.077 106.576 260.805 108.192 263.125 108.192C264.357 108.192 265.493 107.808 266.261 107.072L265.493 105.968C264.949 106.512 264.053 106.816 263.301 106.816C261.845 106.816 260.965 105.856 260.837 104.688H266.805V104.288C266.805 101.856 265.317 100.08 262.997 100.08C260.709 100.08 259.077 101.888 259.077 104.128ZM262.997 101.456C264.517 101.456 265.141 102.592 265.173 103.504H260.821C260.901 102.56 261.557 101.456 262.997 101.456ZM270.143 108V102.736C270.479 102.192 271.423 101.712 272.127 101.712C272.335 101.712 272.511 101.728 272.655 101.76V100.096C271.647 100.096 270.719 100.672 270.143 101.408V100.272H268.463V108H270.143ZM273.53 104.128C273.53 106.576 275.258 108.192 277.578 108.192C278.81 108.192 279.946 107.808 280.714 107.072L279.946 105.968C279.402 106.512 278.506 106.816 277.754 106.816C276.298 106.816 275.418 105.856 275.29 104.688H281.258V104.288C281.258 101.856 279.77 100.08 277.45 100.08C275.162 100.08 273.53 101.888 273.53 104.128ZM277.45 101.456C278.97 101.456 279.594 102.592 279.626 103.504H275.274C275.354 102.56 276.01 101.456 277.45 101.456ZM282.244 106.992C283.044 107.776 284.244 108.192 285.556 108.192C287.636 108.192 288.772 107.152 288.772 105.792C288.772 103.968 287.124 103.584 285.78 103.296C284.868 103.088 284.1 102.88 284.1 102.288C284.1 101.744 284.66 101.424 285.54 101.424C286.5 101.424 287.364 101.824 287.828 102.352L288.532 101.168C287.828 100.544 286.836 100.08 285.524 100.08C283.572 100.08 282.484 101.168 282.484 102.432C282.484 104.16 284.068 104.512 285.396 104.8C286.34 105.008 287.156 105.248 287.156 105.92C287.156 106.496 286.644 106.864 285.636 106.864C284.628 106.864 283.556 106.336 283.012 105.776L282.244 106.992ZM292.783 108.192C293.567 108.192 294.063 107.984 294.367 107.696L293.967 106.432C293.839 106.576 293.535 106.704 293.215 106.704C292.735 106.704 292.479 106.32 292.479 105.792V101.744H294.047V100.272H292.479V98.16H290.799V100.272H289.519V101.744H290.799V106.208C290.799 107.488 291.487 108.192 292.783 108.192Z" fill="white"/>
<mask id="mask1_369_1257" style="mask-type:alpha" maskUnits="userSpaceOnUse" x="125" y="92" width="24" height="24">
<rect x="125" y="92" width="24" height="24" fill="#D9D9D9"/>
</mask>
<g mask="url(#mask1_369_1257)">
<path d="M132.5 103C131.533 103 130.708 102.658 130.025 101.975C129.342 101.292 129 100.467 129 99.5C129 98.5333 129.342 97.7083 130.025 97.025C130.708 96.3417 131.533 96 132.5 96C133.467 96 134.292 96.3417 134.975 97.025C135.658 97.7083 136 98.5333 136 99.5C136 100.467 135.658 101.292 134.975 101.975C134.292 102.658 133.467 103 132.5 103ZM132.5 101C132.917 101 133.271 100.854 133.562 100.562C133.854 100.271 134 99.9167 134 99.5C134 99.0833 133.854 98.7293 133.562 98.438C133.271 98.146 132.917 98 132.5 98C132.083 98 131.729 98.146 131.438 98.438C131.146 98.7293 131 99.0833 131 99.5C131 99.9167 131.146 100.271 131.438 100.562C131.729 100.854 132.083 101 132.5 101ZM141.5 112C140.533 112 139.708 111.658 139.025 110.975C138.342 110.292 138 109.467 138 108.5C138 107.533 138.342 106.708 139.025 106.025C139.708 105.342 140.533 105 141.5 105C142.467 105 143.292 105.342 143.975 106.025C144.658 106.708 145 107.533 145 108.5C145 109.467 144.658 110.292 143.975 110.975C143.292 111.658 142.467 112 141.5 112ZM141.5 110C141.917 110 142.271 109.854 142.562 109.562C142.854 109.271 143 108.917 143 108.5C143 108.083 142.854 107.729 142.562 107.438C142.271 107.146 141.917 107 141.5 107C141.083 107 140.729 107.146 140.438 107.438C140.146 107.729 140 108.083 140 108.5C140 108.917 140.146 109.271 140.438 109.562C140.729 109.854 141.083 110 141.5 110ZM130.4 112L129 110.6L143.6 96L145 97.4L130.4 112Z" fill="#F5B900"/>
</g>
<path fill-rule="evenodd" clip-rule="evenodd" d="M142 184C146.971 184 151 179.971 151 175C151 170.029 146.971 166 142 166C137.029 166 133 170.029 133 175C133 179.971 137.029 184 142 184ZM138.398 171.976V170.328H146.078V171.4H143.47C144.046 171.832 144.414 172.44 144.542 173.128H146.078V174.2H144.558C144.366 175.752 143.23 176.616 142.062 176.808L144.67 181H142.51L140.142 177.016H138.398V175.368H140.846C141.694 175.368 142.35 174.92 142.59 174.2H138.398V173.128H142.606C142.398 172.392 141.726 171.976 140.846 171.976H138.398Z" fill="#F5B900"/>
<path fill-rule="evenodd" clip-rule="evenodd" d="M125 170C125 169.448 125.448 169 126 169H131C131.552 169 132 169.448 132 170C132 170.552 131.552 171 131 171H126C125.448 171 125 170.552 125 170Z" fill="#F5B900"/>
<path fill-rule="evenodd" clip-rule="evenodd" d="M122 175C122 174.448 122.448 174 123 174H131C131.552 174 132 174.448 132 175C132 175.552 131.552 176 131 176H123C122.448 176 122 175.552 122 175Z" fill="#F5B900"/>
<path fill-rule="evenodd" clip-rule="evenodd" d="M125 180C125 179.448 125.448 179 126 179H131C131.552 179 132 179.448 132 180C132 180.552 131.552 181 131 181H126C125.448 181 125 180.552 125 180Z" fill="#F5B900"/>
<path d="M58.008 142V137.392H63.336V135.744H58.008V132.976H63.448V131.328H56.136V142H58.008ZM66.7524 142V131.328H65.0724V142H66.7524ZM68.4518 138.128C68.4518 140.576 70.1798 142.192 72.4998 142.192C73.7318 142.192 74.8678 141.808 75.6358 141.072L74.8678 139.968C74.3238 140.512 73.4278 140.816 72.6758 140.816C71.2198 140.816 70.3398 139.856 70.2118 138.688H76.1798V138.288C76.1798 135.856 74.6918 134.08 72.3718 134.08C70.0838 134.08 68.4518 135.888 68.4518 138.128ZM72.3718 135.456C73.8918 135.456 74.5158 136.592 74.5478 137.504H70.1957C70.2758 136.56 70.9318 135.456 72.3718 135.456ZM83.9654 142L81.1174 138.032L83.7894 134.272H81.9014L80.0774 136.896L78.2374 134.272H76.3494L79.0214 138.032L76.1894 142H78.0614L80.0774 139.152L82.0774 142H83.9654ZM85.9669 132.992C86.5429 132.992 87.0069 132.528 87.0069 131.952C87.0069 131.376 86.5429 130.912 85.9669 130.912C85.4069 130.912 84.9269 131.376 84.9269 131.952C84.9269 132.528 85.4069 132.992 85.9669 132.992ZM86.8149 142V134.272H85.1349V142H86.8149ZM90.6743 142V140.944C91.2663 141.712 92.1463 142.192 93.1543 142.192C95.1223 142.192 96.5783 140.688 96.5783 138.144C96.5783 135.648 95.1383 134.08 93.1543 134.08C92.1783 134.08 91.2823 134.528 90.6743 135.344V131.328H88.9943V142H90.6743ZM90.6743 136.624C91.0423 136.048 91.8743 135.568 92.6583 135.568C94.0023 135.568 94.8503 136.64 94.8503 138.144C94.8503 139.648 94.0023 140.704 92.6583 140.704C91.8743 140.704 91.0423 140.256 90.6743 139.68V136.624ZM99.9711 142V131.328H98.2911V142H99.9711ZM101.671 138.128C101.671 140.576 103.399 142.192 105.719 142.192C106.951 142.192 108.087 141.808 108.855 141.072L108.087 139.968C107.543 140.512 106.647 140.816 105.895 140.816C104.439 140.816 103.559 139.856 103.431 138.688H109.399V138.288C109.399 135.856 107.911 134.08 105.591 134.08C103.303 134.08 101.671 135.888 101.671 138.128ZM105.591 135.456C107.111 135.456 107.735 136.592 107.767 137.504H103.414C103.495 136.56 104.151 135.456 105.591 135.456ZM117.486 142.192C118.27 142.192 118.766 141.984 119.07 141.696L118.67 140.432C118.542 140.576 118.238 140.704 117.918 140.704C117.438 140.704 117.182 140.32 117.182 139.792V135.744H118.75V134.272H117.182V132.16H115.502V134.272H114.222V135.744H115.502V140.208C115.502 141.488 116.19 142.192 117.486 142.192ZM119.796 138.128C119.796 140.576 121.524 142.192 123.844 142.192C125.076 142.192 126.212 141.808 126.98 141.072L126.212 139.968C125.668 140.512 124.772 140.816 124.02 140.816C122.564 140.816 121.684 139.856 121.556 138.688H127.524V138.288C127.524 135.856 126.036 134.08 123.716 134.08C121.428 134.08 119.796 135.888 119.796 138.128ZM123.716 135.456C125.236 135.456 125.86 136.592 125.892 137.504H121.539C121.62 136.56 122.276 135.456 123.716 135.456ZM136.078 142V136.56C136.078 134.976 135.246 134.08 133.582 134.08C132.366 134.08 131.374 134.72 130.862 135.328V134.272H129.182V142H130.862V136.608C131.246 136.08 131.982 135.568 132.846 135.568C133.79 135.568 134.398 135.968 134.398 137.168V142H136.078ZM145.156 142V134.272H143.476V139.696C143.076 140.224 142.34 140.704 141.492 140.704C140.548 140.704 139.94 140.336 139.94 139.136V134.272H138.26V139.744C138.26 141.328 139.076 142.192 140.74 142.192C141.956 142.192 142.916 141.6 143.476 140.976V142H145.156ZM149.018 142V136.736C149.354 136.192 150.298 135.712 151.002 135.712C151.21 135.712 151.386 135.728 151.53 135.76V134.096C150.522 134.096 149.594 134.672 149.018 135.408V134.272H147.338V142H149.018ZM152.405 138.128C152.405 140.576 154.133 142.192 156.453 142.192C157.685 142.192 158.821 141.808 159.589 141.072L158.821 139.968C158.277 140.512 157.381 140.816 156.629 140.816C155.173 140.816 154.293 139.856 154.165 138.688H160.133V138.288C160.133 135.856 158.645 134.08 156.325 134.08C154.037 134.08 152.405 135.888 152.405 138.128ZM156.325 135.456C157.845 135.456 158.469 136.592 158.501 137.504H154.149C154.229 136.56 154.885 135.456 156.325 135.456ZM161.119 140.992C161.919 141.776 163.119 142.192 164.431 142.192C166.511 142.192 167.647 141.152 167.647 139.792C167.647 137.968 165.999 137.584 164.655 137.296C163.743 137.088 162.975 136.88 162.975 136.288C162.975 135.744 163.535 135.424 164.415 135.424C165.375 135.424 166.239 135.824 166.703 136.352L167.407 135.168C166.703 134.544 165.711 134.08 164.399 134.08C162.447 134.08 161.359 135.168 161.359 136.432C161.359 138.16 162.943 138.512 164.271 138.8C165.215 139.008 166.031 139.248 166.031 139.92C166.031 140.496 165.519 140.864 164.511 140.864C163.503 140.864 162.431 140.336 161.887 139.776L161.119 140.992Z" fill="white"/>
<mask id="mask2_369_1257" style="mask-type:alpha" maskUnits="userSpaceOnUse" x="24" y="123" width="24" height="24">
<rect x="24" y="123" width="24" height="24" fill="#D9D9D9"/>
</mask>
<g mask="url(#mask2_369_1257)">
<path d="M38.5 141C37.8 141 37.2083 140.758 36.725 140.275C36.2417 139.792 36 139.2 36 138.5C36 137.8 36.2417 137.208 36.725 136.725C37.2083 136.242 37.8 136 38.5 136C39.2 136 39.7917 136.242 40.275 136.725C40.7583 137.208 41 137.8 41 138.5C41 139.2 40.7583 139.792 40.275 140.275C39.7917 140.758 39.2 141 38.5 141ZM29 145C28.45 145 27.979 144.804 27.587 144.413C27.1957 144.021 27 143.55 27 143V129C27 128.45 27.1957 127.979 27.587 127.588C27.979 127.196 28.45 127 29 127H30V125H32V127H40V125H42V127H43C43.55 127 44.021 127.196 44.413 127.588C44.8043 127.979 45 128.45 45 129V143C45 143.55 44.8043 144.021 44.413 144.413C44.021 144.804 43.55 145 43 145H29ZM29 143H43V133H29V143ZM29 131H43V129H29V131Z" fill="#F5B900"/>
</g>
<path d="M161.448 177.496C162.392 178.504 163.816 179.192 165.784 179.192C168.664 179.192 169.912 177.672 169.912 175.896C169.912 173.576 167.816 173.032 166.056 172.584C164.792 172.264 163.704 171.992 163.704 171.16C163.704 170.36 164.408 169.832 165.512 169.832C166.632 169.832 167.768 170.216 168.6 171.048L169.672 169.656C168.68 168.696 167.336 168.168 165.672 168.168C163.336 168.168 161.784 169.528 161.784 171.288C161.784 173.544 163.832 174.056 165.576 174.488C166.872 174.824 168.008 175.112 168.008 176.072C168.008 176.776 167.4 177.528 165.864 177.528C164.376 177.528 163.224 176.84 162.488 176.056L161.448 177.496ZM171.108 175.128C171.108 177.576 172.836 179.192 175.156 179.192C176.388 179.192 177.524 178.808 178.292 178.072L177.524 176.968C176.98 177.512 176.084 177.816 175.332 177.816C173.876 177.816 172.996 176.856 172.868 175.688H178.836V175.288C178.836 172.856 177.348 171.08 175.028 171.08C172.74 171.08 171.108 172.888 171.108 175.128ZM175.028 172.456C176.548 172.456 177.172 173.592 177.204 174.504H172.852C172.932 173.56 173.588 172.456 175.028 172.456ZM180.014 175.128C180.014 177.48 181.662 179.192 184.014 179.192C185.518 179.192 186.43 178.552 186.974 177.816L185.87 176.792C185.438 177.384 184.846 177.704 184.094 177.704C182.686 177.704 181.758 176.632 181.758 175.128C181.758 173.624 182.686 172.568 184.094 172.568C184.846 172.568 185.438 172.872 185.87 173.48L186.974 172.456C186.43 171.72 185.518 171.08 184.014 171.08C181.662 171.08 180.014 172.792 180.014 175.128ZM193.663 179H195.343V171.272H193.663V176.696C193.263 177.224 192.527 177.704 191.679 177.704C190.735 177.704 190.127 177.336 190.127 176.136V171.272H188.447V176.744C188.447 178.328 189.263 179.192 190.927 179.192C192.143 179.192 193.103 178.6 193.663 177.976V179ZM197.526 179H199.206V173.736C199.542 173.192 200.486 172.712 201.19 172.712C201.398 172.712 201.574 172.728 201.718 172.76V171.096C200.71 171.096 199.782 171.672 199.206 172.408V171.272H197.526V179ZM202.592 175.128C202.592 177.576 204.32 179.192 206.64 179.192C207.872 179.192 209.008 178.808 209.776 178.072L209.008 176.968C208.464 177.512 207.568 177.816 206.816 177.816C205.36 177.816 204.48 176.856 204.352 175.688H210.32V175.288C210.32 172.856 208.832 171.08 206.512 171.08C204.224 171.08 202.592 172.888 202.592 175.128ZM206.512 172.456C208.032 172.456 208.656 173.592 208.688 174.504H204.336C204.416 173.56 205.072 172.456 206.512 172.456ZM218.408 179.192C219.192 179.192 219.688 178.984 219.992 178.696L219.592 177.432C219.464 177.576 219.16 177.704 218.84 177.704C218.36 177.704 218.104 177.32 218.104 176.792V172.744H219.672V171.272H218.104V169.16H216.424V171.272H215.144V172.744H216.424V177.208C216.424 178.488 217.112 179.192 218.408 179.192ZM221.197 179H222.877V173.736C223.213 173.192 224.157 172.712 224.861 172.712C225.069 172.712 225.245 172.728 225.389 172.76V171.096C224.381 171.096 223.453 171.672 222.877 172.408V171.272H221.197V179ZM231.464 179H233.144V173.88C233.144 171.8 231.64 171.08 229.928 171.08C228.696 171.08 227.576 171.48 226.68 172.328L227.368 173.496C228.04 172.84 228.792 172.52 229.656 172.52C230.728 172.52 231.464 173.064 231.464 173.96V175.112C230.904 174.456 230.008 174.12 228.968 174.12C227.704 174.12 226.28 174.856 226.28 176.632C226.28 178.344 227.704 179.192 228.968 179.192C229.992 179.192 230.888 178.824 231.464 178.168V179ZM231.464 177.24C231.08 177.768 230.36 178.04 229.624 178.04C228.68 178.04 227.976 177.496 227.976 176.664C227.976 175.816 228.68 175.272 229.624 175.272C230.36 175.272 231.08 175.544 231.464 176.072V177.24ZM240.538 179H242.218V173.56C242.218 171.976 241.386 171.08 239.722 171.08C238.506 171.08 237.514 171.72 237.002 172.328V171.272H235.322V179H237.002V173.608C237.386 173.08 238.122 172.568 238.986 172.568C239.93 172.568 240.538 172.968 240.538 174.168V179ZM243.729 177.992C244.529 178.776 245.729 179.192 247.041 179.192C249.121 179.192 250.257 178.152 250.257 176.792C250.257 174.968 248.609 174.584 247.265 174.296C246.353 174.088 245.585 173.88 245.585 173.288C245.585 172.744 246.145 172.424 247.025 172.424C247.985 172.424 248.849 172.824 249.313 173.352L250.017 172.168C249.313 171.544 248.321 171.08 247.009 171.08C245.057 171.08 243.969 172.168 243.969 173.432C243.969 175.16 245.553 175.512 246.881 175.8C247.825 176.008 248.641 176.248 248.641 176.92C248.641 177.496 248.129 177.864 247.121 177.864C246.113 177.864 245.041 177.336 244.497 176.776L243.729 177.992ZM256.667 179H258.347V173.88C258.347 171.8 256.843 171.08 255.131 171.08C253.899 171.08 252.779 171.48 251.883 172.328L252.571 173.496C253.243 172.84 253.995 172.52 254.859 172.52C255.931 172.52 256.667 173.064 256.667 173.96V175.112C256.107 174.456 255.211 174.12 254.171 174.12C252.907 174.12 251.483 174.856 251.483 176.632C251.483 178.344 252.907 179.192 254.171 179.192C255.195 179.192 256.091 178.824 256.667 178.168V179ZM256.667 177.24C256.283 177.768 255.563 178.04 254.827 178.04C253.883 178.04 253.179 177.496 253.179 176.664C253.179 175.816 253.883 175.272 254.827 175.272C255.563 175.272 256.283 175.544 256.667 176.072V177.24ZM260.046 175.128C260.046 177.48 261.694 179.192 264.046 179.192C265.55 179.192 266.462 178.552 267.006 177.816L265.902 176.792C265.47 177.384 264.878 177.704 264.126 177.704C262.718 177.704 261.789 176.632 261.789 175.128C261.789 173.624 262.718 172.568 264.126 172.568C264.878 172.568 265.47 172.872 265.902 173.48L267.006 172.456C266.462 171.72 265.55 171.08 264.046 171.08C261.694 171.08 260.046 172.792 260.046 175.128ZM270.799 179.192C271.583 179.192 272.079 178.984 272.383 178.696L271.983 177.432C271.855 177.576 271.551 177.704 271.231 177.704C270.751 177.704 270.495 177.32 270.495 176.792V172.744H272.063V171.272H270.495V169.16H268.815V171.272H267.535V172.744H268.815V177.208C268.815 178.488 269.503 179.192 270.799 179.192ZM274.42 169.992C274.996 169.992 275.46 169.528 275.46 168.952C275.46 168.376 274.996 167.912 274.42 167.912C273.86 167.912 273.38 168.376 273.38 168.952C273.38 169.528 273.86 169.992 274.42 169.992ZM273.588 179H275.268V171.272H273.588V179ZM280.935 179.192C283.415 179.192 284.919 177.352 284.919 175.128C284.919 172.92 283.415 171.08 280.935 171.08C278.487 171.08 276.967 172.92 276.967 175.128C276.967 177.352 278.487 179.192 280.935 179.192ZM280.935 177.704C279.511 177.704 278.711 176.504 278.711 175.128C278.711 173.768 279.511 172.568 280.935 172.568C282.375 172.568 283.175 173.768 283.175 175.128C283.175 176.504 282.375 177.704 280.935 177.704ZM291.835 179H293.515V173.56C293.515 171.976 292.683 171.08 291.019 171.08C289.803 171.08 288.811 171.72 288.299 172.328V171.272H286.619V179H288.299V173.608C288.683 173.08 289.419 172.568 290.283 172.568C291.227 172.568 291.835 172.968 291.835 174.168V179ZM295.025 177.992C295.825 178.776 297.025 179.192 298.337 179.192C300.417 179.192 301.553 178.152 301.553 176.792C301.553 174.968 299.905 174.584 298.561 174.296C297.649 174.088 296.881 173.88 296.881 173.288C296.881 172.744 297.441 172.424 298.321 172.424C299.281 172.424 300.145 172.824 300.609 173.352L301.313 172.168C300.609 171.544 299.617 171.08 298.305 171.08C296.353 171.08 295.265 172.168 295.265 173.432C295.265 175.16 296.849 175.512 298.177 175.8C299.121 176.008 299.937 176.248 299.937 176.92C299.937 177.496 299.425 177.864 298.417 177.864C297.409 177.864 296.337 177.336 295.793 176.776L295.025 177.992Z" fill="white"/>
<defs>
<linearGradient id="paint0_linear_369_1257" x1="16.9319" y1="77.0969" x2="301.159" y2="83.348" gradientUnits="userSpaceOnUse">
<stop stop-color="#240253"/>
<stop offset="1" stop-color="#6933D3"/>
</linearGradient>
</defs>
</svg>
