<svg width="27" height="19" viewBox="0 0 27 19" fill="none" xmlns="http://www.w3.org/2000/svg">
<path d="M26.3291 12.8906L22.2191 12.8907V18.1916L26.3291 12.8906Z" fill="#91BA2E"/>
<path d="M4.04004 0.664062H24.3293C25.4339 0.664062 26.3293 1.55949 26.3293 2.66406V12.8903H6.04004C4.93547 12.8903 4.04004 11.9949 4.04004 10.8903V0.664062Z" fill="#AFE137"/>
<path d="M9.86031 4.14251L10.921 4.14135L10.9261 8.78185L10.0444 8.78281L7.72768 5.9679L7.73076 8.78534L6.67008 8.7865L6.665 4.146L7.55332 4.14503L9.8634 6.95995L9.86031 4.14251ZM13.0904 7.91767L15.6161 7.9149L15.6171 8.77671L12.024 8.78064L12.0189 4.14014L15.5258 4.13631L15.5268 4.99811L13.0872 5.00078L13.0883 6.00843L15.2428 6.00608L15.2437 6.84137L13.0892 6.84372L13.0904 7.91767ZM22.388 4.12879L23.4155 4.12767L21.9025 8.76983L20.749 8.77109L19.7247 5.62993L18.6741 8.77336L17.5272 8.77462L15.9974 4.13579L17.1111 4.13457L18.1621 7.39503L19.2524 4.13223L20.2467 4.13114L21.311 7.4181L22.388 4.12879Z" fill="black"/>
<path d="M4.04102 0.664062L0.12158 6.54284L4.03692 6.54292L4.04102 0.664062Z" fill="#91BA2E"/>
</svg>
