<svg width="494" height="175" viewBox="0 0 494 175" fill="none" xmlns="http://www.w3.org/2000/svg">
<g clip-path="url(#clip0_2087_436)">
<path d="M380.654 129.156H354.943L390.701 0.0162532H416.413L380.654 129.156Z" fill="#66686C"/>
<path d="M367.307 4.09913C365.524 1.6418 362.775 0.401792 359.04 0.401792H217.659L210.656 25.6951H236.381V25.6805H339.273L331.788 52.7098H228.893L228.903 52.6538H203.188L181.845 129.703H207.573L221.896 77.9885H337.557C341.169 77.9885 344.569 76.7565 347.767 74.2925C350.957 71.8258 353.057 68.7845 354.064 65.1525L368.385 13.4271C369.431 9.6738 369.069 6.55913 367.307 4.09913Z" fill="#66686C"/>
<path d="M166.863 121.095C165.443 126.209 160.787 129.746 155.479 129.746H22.8245C19.2098 129.746 16.5232 128.514 14.7565 126.053C12.9912 123.589 12.6125 120.541 13.6218 116.91L45.9898 0.394102H71.7245L42.8138 104.461H145.755L174.666 0.394102H200.395L166.863 121.095Z" fill="#66686C"/>
<path d="M460.818 0.257527L493.37 64.9949L424.941 129.715L460.818 0.257527Z" fill="#27803B"/>
<path d="M437.999 0.257527L470.527 64.9949L402.07 129.715L437.999 0.257527Z" fill="#E9661C"/>
</g>
<defs>
<clipPath id="clip0_2087_436">
<rect width="493.379" height="174.304" fill="white"/>
</clipPath>
</defs>
</svg>
