<svg width="170" height="36" viewBox="0 0 170 36" fill="none" xmlns="http://www.w3.org/2000/svg">
<path d="M18.5092 10.1447L16.2961 14.401C13.8577 13.0701 11.6056 12.3492 9.91786 12.3492C8.75456 12.3492 7.92931 12.8041 7.92931 13.754C7.92931 16.5662 18.5846 15.1983 18.5457 22.3423C18.5457 26.5601 14.9083 28.8779 10.0305 28.8779C6.65415 28.8779 3.39044 27.8902 0.951172 25.9903L3.01511 21.8103C5.30359 23.4442 7.92931 24.3564 10.1805 24.3564C11.4565 24.3564 12.3936 23.9007 12.3936 22.9507C12.3936 19.9481 1.92639 21.5065 1.96449 14.3247C1.96449 10.1069 5.49085 7.82682 10.1805 7.82682C13.107 7.82682 16.0326 8.66266 18.5092 10.1447Z" fill="#014751"/>
<path d="M41.2165 15.6949V28.6143H34.7637V17.5193C34.7637 15.1251 33.375 13.6431 31.2 13.6431C28.8361 13.6431 27.3348 15.3533 27.073 17.7853V28.6143H20.582V8.13296H27.073V11.4771C28.4981 9.08293 30.8247 7.86776 33.8257 7.82917C38.29 7.82917 41.2165 10.9073 41.2165 15.6949Z" fill="#014751"/>
<path d="M55.848 21.6636V19.8392H51.759C49.8078 19.8392 48.8334 20.5231 48.8334 22.0429C48.8334 23.5257 49.884 24.4749 51.6836 24.4749C53.7103 24.4749 55.4362 23.3352 55.848 21.6636ZM62.2254 15.2421V28.6171H55.8861V26.2615C54.5736 28.0095 52.4343 28.9209 49.6959 28.9209C45.3816 28.9209 42.7559 26.2615 42.7559 22.4994C42.7559 18.6232 45.4943 16.3439 50.5211 16.3053H55.848V16.0015C55.848 13.9875 54.5355 12.7715 51.9098 12.7715C50.2212 12.7715 48.0073 13.3791 45.8688 14.4818L44.031 10.1499C47.1829 8.66786 50.0331 7.8312 53.4095 7.8312C58.9625 7.8312 62.1889 10.6056 62.2254 15.2421Z" fill="#014751"/>
<path d="M81.0128 18.2862C81.0128 15.1703 79.1742 12.9666 76.4731 12.9666C73.8482 12.9666 72.0097 15.1703 72.0097 18.2862C72.0097 21.4785 73.8482 23.6436 76.4731 23.6436C79.1742 23.6436 81.0128 21.4399 81.0128 18.2862ZM87.5418 18.4759C87.5418 24.7077 83.8655 28.8491 78.199 28.8491C75.5741 28.8491 73.4348 27.785 72.0097 25.8859V35.9932H65.5195V8.14041H72.0097V10.8384C73.4348 8.97624 75.4979 7.91215 78.0499 7.91215C83.7528 7.91215 87.5418 12.1299 87.5418 18.4759Z" fill="#014751"/>
<path d="M123.188 16.2647V28.6143H120.263V17.0628C120.263 13.4912 118.199 11.4008 114.784 11.4008C110.695 11.5149 108.332 14.4789 108.332 18.7731V28.6143H105.368V17.0628C105.368 13.4912 103.342 11.4008 99.8907 11.4008C95.839 11.5149 93.3998 14.4789 93.3998 18.7731V28.6143H90.5098V8.58865H93.3998V13.111C94.713 9.99512 97.3768 8.51311 100.941 8.47534C104.655 8.47534 107.206 10.413 108.032 13.7186C109.269 10.1856 112.046 8.51311 115.836 8.47534C120.45 8.47534 123.188 11.4385 123.188 16.2647Z" fill="#014751"/>
<path d="M128.183 8.59353H131.072V28.6191H128.183V8.59353ZM131.522 2.85516C131.522 4.03337 130.697 4.90698 129.609 4.90698C128.521 4.90698 127.695 4.03337 127.695 2.85516C127.695 1.67776 128.521 0.803333 129.609 0.803333C130.697 0.803333 131.522 1.67776 131.522 2.85516Z" fill="#014751"/>
<path d="M154.773 16.2647V28.6143H151.847V17.0628C151.847 13.529 149.746 11.4385 146.257 11.4385C142.355 11.4771 139.954 14.0602 139.617 17.86V28.6143H136.689V8.58865H139.617V12.9969C141.005 9.95653 143.668 8.51311 147.269 8.47534C151.996 8.47534 154.773 11.4385 154.773 16.2647Z" fill="#014751"/>
<path d="M170.001 27.2401C168.613 28.1901 167.113 28.7222 165.537 28.7607C162.649 28.7607 160.51 27.0127 160.51 23.0601V11.6228H157.658V9.22858H160.51V3.94672H163.398V9.22858L169.664 9.19082V11.6228H163.398V22.5281C163.398 24.9609 164.336 25.8723 166.025 25.8723C167.038 25.8723 168.088 25.5299 169.176 24.8459L170.001 27.2401Z" fill="#014751"/>
</svg>
