<svg width="31" height="10" viewBox="0 0 31 10" fill="none" xmlns="http://www.w3.org/2000/svg">
<path d="M23.6461 8.99024H22.0156L24.2819 0.824219H25.9023L23.6461 8.99024Z" fill="#66686C"/>
<path d="M22.7864 1.10487C22.6736 0.948997 22.4993 0.871094 22.2634 0.871094H13.3211L12.8801 2.46986H14.5106L21.0123 2.4688L20.5405 4.17829H14.0286L14.0389 4.17422H12.4084L11.0547 9.04632H12.6853L13.5878 5.77705H20.8994C21.1353 5.77705 21.3506 5.69909 21.5455 5.54321C21.7506 5.38734 21.8839 5.19458 21.9454 4.96487L22.8581 1.69454C22.9197 1.45663 22.8992 1.25972 22.7864 1.10487Z" fill="#66686C"/>
<path d="M10.1235 8.49993C10.0312 8.82296 9.73373 9.04654 9.40557 9.04654H1.01711C0.781242 9.04654 0.617163 8.96861 0.504359 8.81376C0.391554 8.65789 0.370974 8.46507 0.432504 8.23536L2.47323 0.867188H4.10385L2.27844 7.44783H8.7903L10.6157 0.867188H12.2359L10.1235 8.49993Z" fill="#66686C"/>
<path d="M28.7142 0.861328L30.7652 4.9551L26.4375 9.04681L28.7142 0.861328Z" fill="#27803B"/>
<path d="M27.2663 0.861328L29.3276 4.9551L25 9.04681L27.2663 0.861328Z" fill="#E9661C"/>
</svg>
